<?xml version="1.0" encoding="UTF-8"?>
<svg version="1.1" viewBox="0 0 2000 2250" xmlns="http://www.w3.org/2000/svg">
<g transform="translate(.0022017)">
<svg width="2e3" height="2250" data-background-color="#ffffff" viewBox="0 0 320 360" xmlns="http://www.w3.org/2000/svg" xmlns:xlink="http://www.w3.org/1999/xlink">
<g transform="translate(.00010354)">
<svg width="320" height="360" viewBox="0 0 320 360">
<svg/>
<svg width="320" height="360" viewBox="0 0 320 360">
<path d="m307.92 180 6.575-11.387c11.322-19.607 4.604-44.679-15.003-56.001l-11.387-6.575v-13.151c0-22.639-18.354-40.994-40.994-40.994h-13.151l-6.575-11.387c-11.322-19.607-36.393-26.325-56.001-15.003l-11.39 6.572-11.387-6.576c-19.607-11.318-44.679-4.6-56.001 15.007l-6.575 11.387h-13.151c-22.639 0-40.994 18.354-40.994 40.994v13.151l-11.387 6.575c-19.607 11.322-26.325 36.393-15.003 56.001l6.572 11.387-6.576 11.387c-11.318 19.607-4.6 44.679 15.007 56l11.387 6.576v13.15c0 22.639 18.354 40.994 40.994 40.994h13.151l6.575 11.387c11.322 19.607 36.393 26.325 56.001 15.003l11.387-6.571 11.387 6.575c19.607 11.322 44.679 4.604 56-15.003l6.576-11.387h13.15c22.639 0 40.994-18.354 40.994-40.994v-13.151l11.387-6.575c19.607-11.322 26.325-36.393 15.003-56.001zm-10.223-64.283c8.655 4.996 14.842 13.062 17.428 22.713 2.586 9.65 1.261 19.734-3.735 28.384l-5.538 9.596-17.747-30.74v-35.494zm-46.547 155.44-57.791 33.365h-66.731l-57.791-33.365-33.365-57.791v-66.731l33.365-57.791 57.791-33.365h66.731l57.791 33.365 33.365 57.791v66.731zm33.362-50.616v31.351l-27.151 15.676zm-36.951 56.827-15.676 27.151h-31.351zm-60.416 30.74-27.151 15.676-27.151-15.676zm-67.691-3.589h-31.352l-15.676-27.151zm-56.827-36.951-27.151-15.676v-31.351zm-30.741-60.416-15.675-27.151 15.675-27.151zm3.59-67.691v-31.352l27.151-15.676zm36.95-56.827 15.676-27.151h31.352zm60.417-30.741 27.151-15.675 27.151 15.675zm67.691 3.59h31.351l15.676 27.151zm56.827 36.95 27.151 15.676v31.352zm30.74 60.417 15.676 27.151-15.676 27.151zm-40.994-97.367c9.992 0 19.384 3.889 26.452 10.956 7.063 7.063 10.956 16.46 10.957 26.452v11.079l-30.741-17.747-17.747-30.74zm-73.932-26.875c8.655-4.996 18.735-6.322 28.385-3.735 9.65 2.586 17.716 8.777 22.712 17.428l5.538 9.596h-35.494l-30.741-17.747zm-77.464 13.689c4.996-8.655 13.062-14.842 22.713-17.428 9.65-2.586 19.734-1.261 28.384 3.736l9.596 5.537-30.74 17.747h-35.494zm-60.235 50.59c0-9.992 3.889-19.384 10.956-26.452 7.063-7.063 16.46-10.956 26.452-10.956h11.079l-17.747 30.74-30.74 17.747zm-26.875 73.932c-4.996-8.655-6.322-18.735-3.735-28.385 2.586-9.65 8.777-17.716 17.428-22.712l9.596-5.538v35.495l-17.747 30.74zm13.689 77.464c-8.655-4.996-14.842-13.062-17.428-22.712s-1.261-19.734 3.736-28.385l5.537-9.596 17.747 30.74v35.495zm50.59 60.236c-9.992 0-19.384-3.889-26.452-10.957-7.063-7.063-10.956-16.46-10.956-26.451v-11.08l30.74 17.747 17.747 30.741zm73.932 26.874c-8.655 4.996-18.735 6.322-28.385 3.735-9.65-2.586-17.716-8.777-22.712-17.428l-5.538-9.596h35.495l30.74 17.747zm77.464-13.689c-4.996 8.655-13.062 14.842-22.712 17.428s-19.734 1.261-28.385-3.735l-9.596-5.538 30.74-17.747h35.495zm60.236-50.59c0 9.992-3.889 19.384-10.957 26.452-7.063 7.063-16.46 10.956-26.451 10.957h-11.08l17.747-30.741 30.741-17.747zm30.613-45.547c-2.586 9.65-8.777 17.716-17.428 22.712l-9.596 5.538v-35.494l17.747-30.741 5.538 9.596c4.996 8.658 6.326 18.739 3.739 28.389z" fill="#ee3e38" font-family="none" font-size="none" font-weight="none" stroke-dasharray="" stroke-miterlimit="10" text-anchor="none" style="mix-blend-mode:normal" data-fill-palette-color="tertiary"/>
<g transform="translate(112.22 90)">
<svg width="95.553" height="180" viewBox="0 0 95.55296856810244 180">
<svg width="95.553" height="180" viewBox="0 0 95.55296856810244 180">
<svg width="95.553" height="180" viewBox="0 0 95.55296856810244 180">
<svg width="95.553" height="180" viewBox="0 0 95.55296856810244 180">
<svg width="95.553" height="180" viewBox="0 0 95.55296856810244 180">
<svg width="95.553" height="180" viewBox="0 0 95.55296856810244 180">
<g>
<svg width="95.553" height="180" data-palette-color="#ee3e38" viewBox="0.75 -42.95 22.8 42.95">
<path class="wordmark-text-0" d="m9.1 0h-8.35l4.15-42.95h14.55l4.1 42.95h-8.15l-0.6-6.95h-5.2l-0.5 6.95zm2.75-35.65-1.6 21.85h3.9l-1.9-21.85h-0.4z" fill="#ee3e38" data-fill-palette-color="primary"/>
</svg>
</g>
</svg>
</svg>
</svg>
</svg>
</svg>
</svg>
</g>
</svg>
</svg>
<rect width="320" height="360" fill="none" visibility="hidden"/>
</g>
</svg>
</g>
</svg>
